<mxfile host="app.diagrams.net" agent="Mozilla/5.0 (Macintosh; Intel Mac OS X 10_15_7) AppleWebKit/537.36 (KHTML, like Gecko) Chrome/133.0.0.0 Safari/537.36" version="26.1.0">
  <diagram name="Page-1" id="2cc2dc42-3aac-f2a9-1cec-7a8b7cbee084">
    <mxGraphModel dx="954" dy="639" grid="1" gridSize="10" guides="1" tooltips="1" connect="1" arrows="1" fold="1" page="1" pageScale="1" pageWidth="1100" pageHeight="850" background="none" math="0" shadow="0">
      <root>
        <mxCell id="0" />
        <mxCell id="1" parent="0" />
        <mxCell id="7026571954dc6520-1" value="" style="strokeWidth=1;shadow=0;dashed=0;align=left;html=1;shape=mxgraph.mockup.containers.browserWindow;rSize=0;strokeColor=#666666;mainText=,;recursiveResize=0;rounded=0;labelBackgroundColor=none;fontFamily=Verdana;fontSize=12" parent="1" vertex="1">
          <mxGeometry x="30" y="20" width="1065" height="820" as="geometry" />
        </mxCell>
        <mxCell id="7026571954dc6520-2" value="Page 2" style="strokeWidth=1;shadow=0;dashed=0;align=center;html=1;shape=mxgraph.mockup.containers.anchor;fontSize=17;fontColor=#666666;align=left;" parent="7026571954dc6520-1" vertex="1">
          <mxGeometry x="60" y="12" width="110" height="26" as="geometry" />
        </mxCell>
        <mxCell id="7026571954dc6520-3" value="https://jaydenh1032.github.io/wdd130/wwr/index.html/page2" style="strokeWidth=1;shadow=0;dashed=0;align=center;html=1;shape=mxgraph.mockup.containers.anchor;rSize=0;fontSize=17;fontColor=#666666;align=left;" parent="7026571954dc6520-1" vertex="1">
          <mxGeometry x="130" y="60" width="250" height="26" as="geometry" />
        </mxCell>
        <mxCell id="7026571954dc6520-4" value="&lt;font data-font-src=&quot;https://fonts.googleapis.com/css?family=Open+Sans&quot; face=&quot;Open Sans&quot;&gt;Dry Oar Blog&lt;/font&gt;" style="text;html=1;points=[];align=left;verticalAlign=top;spacingTop=-4;fontSize=30;fontFamily=Verdana" parent="7026571954dc6520-1" vertex="1">
          <mxGeometry x="20" y="160" width="340" height="50" as="geometry" />
        </mxCell>
        <mxCell id="7026571954dc6520-16" value="&lt;div&gt;&lt;b&gt;&lt;font face=&quot;Open Sans&quot;&gt;Highlights from the past season&lt;/font&gt;&lt;/b&gt;&lt;/div&gt;&lt;div&gt;&lt;br&gt;&lt;/div&gt;" style="text;html=1;points=[];align=left;verticalAlign=top;spacingTop=-4;fontSize=15;fontFamily=Verdana" parent="7026571954dc6520-1" vertex="1">
          <mxGeometry x="20" y="300" width="280" height="30" as="geometry" />
        </mxCell>
        <mxCell id="7026571954dc6520-17" value="&lt;div&gt;&lt;font data-font-src=&quot;https://fonts.googleapis.com/css?family=Lato&quot; face=&quot;Lato&quot;&gt;What an incredible season we have had. We celebrated our 50th year of running trips down the Grand Canyon. This year we ran 36 trips down the Grand Canyon introducing over 800 people to one of our favorite places on earth. We trained 4 new guides and welcomed them to our family. The season started off with some chilly weather in the early season, but our guests braved the cold and loved every minute of their trip (show pictures). Later the temperatures soared reaching highs of 120 F in the Grand canyon and 95 on the Salmon. We didn&#39;t have any trouble getting people in the water at those temperatures.&lt;/font&gt;&lt;/div&gt;&lt;div&gt;&lt;br&gt;&lt;/div&gt;" style="text;spacingTop=-5;whiteSpace=wrap;html=1;align=left;fontSize=12;fontFamily=Helvetica;fillColor=none;strokeColor=none;rounded=0;shadow=1;labelBackgroundColor=none;" parent="7026571954dc6520-1" vertex="1">
          <mxGeometry x="20" y="330" width="570" height="100" as="geometry" />
        </mxCell>
        <mxCell id="7026571954dc6520-21" value="" style="verticalLabelPosition=bottom;shadow=0;dashed=0;align=center;html=1;verticalAlign=top;strokeWidth=1;shape=mxgraph.mockup.markup.line;strokeColor=#999999;rounded=0;labelBackgroundColor=none;fillColor=#ffffff;fontFamily=Verdana;fontSize=12;fontColor=#000000;" parent="7026571954dc6520-1" vertex="1">
          <mxGeometry y="420" width="1050" height="40" as="geometry" />
        </mxCell>
        <mxCell id="7026571954dc6520-22" value="" style="verticalLabelPosition=bottom;shadow=0;dashed=0;align=center;html=1;verticalAlign=top;strokeWidth=1;shape=mxgraph.mockup.graphics.simpleIcon;strokeColor=#999999;fillColor=#ffffff;rounded=0;labelBackgroundColor=none;fontFamily=Verdana;fontSize=12;fontColor=#000000;" parent="7026571954dc6520-1" vertex="1">
          <mxGeometry x="15" y="450" width="245" height="330" as="geometry" />
        </mxCell>
        <mxCell id="7026571954dc6520-31" value="&lt;div&gt;&lt;font data-font-src=&quot;https://fonts.googleapis.com/css?family=Open+Sans&quot; face=&quot;Open Sans&quot;&gt;&lt;b&gt;Encounters in the wild!&lt;/b&gt;&lt;/font&gt;&lt;/div&gt;&lt;div&gt;&lt;br&gt;&lt;/div&gt;" style="text;html=1;points=[];align=left;verticalAlign=top;spacingTop=-4;fontSize=15;fontFamily=Verdana" parent="7026571954dc6520-1" vertex="1">
          <mxGeometry x="270" y="440" width="170" height="20" as="geometry" />
        </mxCell>
        <mxCell id="dZihawa0uvj5Cr76-ntX-1" value="" style="verticalLabelPosition=bottom;shadow=0;dashed=0;align=center;html=1;verticalAlign=top;strokeWidth=1;shape=mxgraph.mockup.graphics.simpleIcon;strokeColor=#999999;fillColor=#ffffff;rounded=0;labelBackgroundColor=none;fontFamily=Verdana;fontSize=12;fontColor=#000000;" vertex="1" parent="7026571954dc6520-1">
          <mxGeometry x="270" y="160" width="110" height="80" as="geometry" />
        </mxCell>
        <mxCell id="dZihawa0uvj5Cr76-ntX-6" value="&lt;h3 style=&quot;background-color: rgb(255, 255, 255);&quot;&gt;&lt;font data-font-src=&quot;https://fonts.googleapis.com/css?family=Open+Sans&quot; face=&quot;Open Sans&quot; style=&quot;font-size: 14px; color: rgb(0, 0, 0);&quot;&gt;Next Summer booking open now!&lt;/font&gt;&lt;/h3&gt;&lt;div style=&quot;&quot;&gt;&lt;br&gt;&lt;/div&gt;" style="text;strokeColor=none;align=left;fillColor=none;html=1;verticalAlign=middle;whiteSpace=wrap;rounded=0;" vertex="1" parent="7026571954dc6520-1">
          <mxGeometry x="20" y="220" width="290" height="30" as="geometry" />
        </mxCell>
        <mxCell id="dZihawa0uvj5Cr76-ntX-7" value="&lt;div style=&quot;line-height: 90%;&quot;&gt;&lt;p style=&quot;background-color: rgb(255, 255, 255);&quot;&gt;&lt;font face=&quot;Lato&quot; style=&quot;color: rgb(0, 0, 0);&quot;&gt;Make sure to reserve your date now, we have limited runs on each river and they go fast. If you have only certain dates that you can get away you should book now.&lt;/font&gt;&lt;/p&gt;&lt;div&gt;&lt;/div&gt;&lt;/div&gt;" style="text;strokeColor=none;align=left;fillColor=none;html=1;verticalAlign=middle;whiteSpace=wrap;rounded=0;" vertex="1" parent="7026571954dc6520-1">
          <mxGeometry x="20" y="240" width="450" height="60" as="geometry" />
        </mxCell>
        <mxCell id="7026571954dc6520-36" value="&lt;div style=&quot;line-height: 110%;&quot;&gt;&lt;div&gt;&lt;font data-font-src=&quot;https://fonts.googleapis.com/css?family=Lato&quot; face=&quot;Lato&quot;&gt;Our trips are all run in some of the most remote areas of the United States. We share these areas with lots of critters both large and small. Here are some tips on what to do if you should find yourself face to face with one.&lt;/font&gt;&lt;/div&gt;&lt;div&gt;&lt;font data-font-src=&quot;https://fonts.googleapis.com/css?family=Lato&quot; face=&quot;Lato&quot;&gt;&lt;br&gt;&lt;/font&gt;&lt;/div&gt;&lt;div&gt;&lt;font data-font-src=&quot;https://fonts.googleapis.com/css?family=Lato&quot; face=&quot;Lato&quot;&gt;Scorpions: There are hundreds of varieties of scorpions, most of them being harmless. There are, however, a handful of them that can be dangerous and even potentially lethal. Scorpions can be found in almost every ecosystem and are very adaptable to their environment. The scorpion that calls Phantom Ranch in the Grand Canyon home is the Bark Scorpion, the most venomous in the United States. Do not worry though, the bark scorpions are only lethal to their prey and luckily humans are not on that list!&lt;/font&gt;&lt;/div&gt;&lt;div&gt;&lt;font data-font-src=&quot;https://fonts.googleapis.com/css?family=Lato&quot; face=&quot;Lato&quot;&gt;&lt;br&gt;&lt;/font&gt;&lt;/div&gt;&lt;div&gt;&lt;font data-font-src=&quot;https://fonts.googleapis.com/css?family=Lato&quot; face=&quot;Lato&quot;&gt;They spend the day hiding and crawl out at night to hunt. They will eat crickets, moths, spiders and other insects. Many compare their sting to an intense bee sting. Relief can be found with ice, aspirin and time.&lt;/font&gt;&lt;/div&gt;&lt;div&gt;&lt;font data-font-src=&quot;https://fonts.googleapis.com/css?family=Lato&quot; face=&quot;Lato&quot;&gt;&lt;br&gt;&lt;/font&gt;&lt;/div&gt;&lt;div&gt;&lt;font data-font-src=&quot;https://fonts.googleapis.com/css?family=Lato&quot; face=&quot;Lato&quot;&gt;When in the canyon, pay attention to where you are walking at night. Always wear your shoes or sandals. Always have a light with you to see where you are going. Never try to capture a scorpion and if you get stung, see your guide immediately.&lt;/font&gt;&lt;/div&gt;&lt;div&gt;&lt;font data-font-src=&quot;https://fonts.googleapis.com/css?family=Lato&quot; face=&quot;Lato&quot;&gt;&lt;br&gt;&lt;/font&gt;&lt;/div&gt;&lt;div&gt;&lt;font data-font-src=&quot;https://fonts.googleapis.com/css?family=Lato&quot; face=&quot;Lato&quot;&gt;Big horn sheep: For many people, bighorn sheep symbolize the rugged mountain west. It is one of two species of wild sheep in North America. Itâ€™s compact body is muscular with chocolate brown fur. Most weigh 160-250 lbs. They have exceptional vision, hearing and smell that helps them detect and avoid predators.&lt;/font&gt;&lt;/div&gt;&lt;div&gt;&lt;font data-font-src=&quot;https://fonts.googleapis.com/css?family=Lato&quot; face=&quot;Lato&quot;&gt;&lt;br&gt;&lt;/font&gt;&lt;/div&gt;&lt;div&gt;&lt;font data-font-src=&quot;https://fonts.googleapis.com/css?family=Lato&quot; face=&quot;Lato&quot;&gt;Their large curved horns can weigh up to 30 lbs. Females also have horns but they are short with a slight curvature. Horns are used as tools for eating and fighting.&lt;/font&gt;&lt;/div&gt;&lt;div&gt;&lt;font data-font-src=&quot;https://fonts.googleapis.com/css?family=Lato&quot; face=&quot;Lato&quot;&gt;&lt;br&gt;&lt;/font&gt;&lt;/div&gt;&lt;div&gt;&lt;font data-font-src=&quot;https://fonts.googleapis.com/css?family=Lato&quot; face=&quot;Lato&quot;&gt;If you encounter a big horn sheep, donâ€™t agitate it. The park service asks that you stay 100 feet away from big game animals. Leave them enough room for escape if they feel threatened.&lt;/font&gt;&lt;/div&gt;&lt;/div&gt;" style="text;spacingTop=-5;whiteSpace=wrap;html=1;align=left;fontSize=12;fontFamily=Helvetica;fillColor=none;strokeColor=none;rounded=0;shadow=1;labelBackgroundColor=none;" parent="7026571954dc6520-1" vertex="1">
          <mxGeometry x="270" y="470" width="760" height="310" as="geometry" />
        </mxCell>
        <mxCell id="dZihawa0uvj5Cr76-ntX-9" value="" style="verticalLabelPosition=bottom;shadow=0;dashed=0;align=center;html=1;verticalAlign=top;strokeWidth=1;shape=mxgraph.mockup.graphics.simpleIcon;strokeColor=#999999;fillColor=#ffffff;rounded=0;labelBackgroundColor=none;fontFamily=Verdana;fontSize=12;fontColor=#000000;" vertex="1" parent="7026571954dc6520-1">
          <mxGeometry x="670" y="160" width="370" height="260" as="geometry" />
        </mxCell>
        <mxCell id="dZihawa0uvj5Cr76-ntX-11" value="&lt;span&gt;&lt;font style=&quot;color: rgb(255, 255, 255); font-size: 18px;&quot;&gt;*Navigation*&lt;/font&gt;&lt;/span&gt;" style="whiteSpace=wrap;html=1;labelBackgroundColor=#0E597E;fillColor=#0E597E;" vertex="1" parent="7026571954dc6520-1">
          <mxGeometry y="110" width="1060" height="40" as="geometry" />
        </mxCell>
        <mxCell id="dZihawa0uvj5Cr76-ntX-12" value="&lt;span&gt;&lt;font style=&quot;color: rgb(255, 255, 255); font-size: 18px;&quot;&gt;*Footer Navigation*&lt;/font&gt;&lt;/span&gt;" style="whiteSpace=wrap;html=1;labelBackgroundColor=#0E597E;fillColor=#0E597E;" vertex="1" parent="7026571954dc6520-1">
          <mxGeometry y="790" width="1060" height="30" as="geometry" />
        </mxCell>
        <mxCell id="dZihawa0uvj5Cr76-ntX-13" value="LOGO" style="text;strokeColor=none;align=center;fillColor=none;html=1;verticalAlign=middle;whiteSpace=wrap;rounded=0;" vertex="1" parent="7026571954dc6520-1">
          <mxGeometry x="295" y="185" width="60" height="30" as="geometry" />
        </mxCell>
        <mxCell id="dZihawa0uvj5Cr76-ntX-14" value="PICTURE #1" style="text;strokeColor=none;align=center;fillColor=none;html=1;verticalAlign=middle;whiteSpace=wrap;rounded=0;" vertex="1" parent="7026571954dc6520-1">
          <mxGeometry x="797.5" y="257.5" width="115" height="65" as="geometry" />
        </mxCell>
        <mxCell id="dZihawa0uvj5Cr76-ntX-15" value="PICTURE #2" style="text;strokeColor=none;align=center;fillColor=none;html=1;verticalAlign=middle;whiteSpace=wrap;rounded=0;" vertex="1" parent="7026571954dc6520-1">
          <mxGeometry x="91.25" y="600" width="92.5" height="30" as="geometry" />
        </mxCell>
      </root>
    </mxGraphModel>
  </diagram>
</mxfile>
